<svg width="481" height="384" viewBox="0 0 481 384" fill="none" xmlns="http://www.w3.org/2000/svg">
<path d="M99.4524 291.221C96.3722 289.548 92.9149 288.723 89.0803 288.723C85.2458 288.723 81.495 289.569 78.2891 291.263C76.1309 292.406 74.2869 293.909 72.7363 295.729C71.2696 293.867 69.5095 292.342 67.456 291.157C64.6063 289.527 61.4632 288.723 57.9639 288.723C54.1294 288.723 50.7139 289.527 47.7385 291.093C46.4184 291.813 45.224 292.681 44.1344 293.655V289.781L28 294.015V341.22H44.1344V311.161C44.1344 309.467 44.4906 308.028 45.224 306.821C45.9574 305.615 46.9632 304.683 48.1995 304.006C49.4567 303.329 50.8815 303.011 52.495 303.011C54.7999 303.011 56.7277 303.731 58.2992 305.17C59.8707 306.61 60.646 308.6 60.646 311.14V341.199H76.7804V311.14C76.7804 309.446 77.1366 308.007 77.8281 306.8C78.5196 305.594 79.5254 304.662 80.8036 303.985C82.1027 303.308 83.5066 302.99 85.0572 302.99C87.2992 302.99 89.1851 303.71 90.7566 305.149C92.3281 306.589 93.1034 308.578 93.1034 311.119V341.177H109.238V309.213C109.238 304.916 108.358 301.233 106.619 298.206C104.879 295.179 102.47 292.829 99.3896 291.157L99.4524 291.221Z" fill="white"/>
<path d="M243.511 291.22C240.431 289.569 236.973 288.744 233.139 288.744C229.304 288.744 225.554 289.59 222.348 291.284C220.189 292.427 218.346 293.93 216.795 295.75C215.328 293.888 213.568 292.363 211.515 291.178C208.686 289.548 205.522 288.744 202.023 288.744C198.188 288.744 194.773 289.548 191.797 291.114C190.477 291.834 189.283 292.702 188.193 293.676V289.781L172.059 294.015V341.22H188.193V311.161C188.193 309.467 188.549 308.028 189.283 306.821C190.016 305.615 191.022 304.683 192.258 304.006C193.515 303.329 194.94 303.011 196.554 303.011C198.859 303.011 200.786 303.731 202.358 305.17C203.929 306.61 204.705 308.599 204.705 311.14V341.198H220.839V311.14C220.839 309.446 221.195 308.007 221.887 306.8C222.578 305.594 223.584 304.662 224.862 303.985C226.161 303.307 227.565 302.99 229.116 302.99C231.358 302.99 233.244 303.71 234.815 305.149C236.387 306.588 237.162 308.578 237.162 311.118V341.177H253.296V309.213C253.296 304.916 252.416 301.233 250.677 298.206C248.938 295.179 246.528 292.829 243.448 291.157L243.511 291.22Z" fill="white"/>
<path d="M154.771 291.898C150.937 289.717 146.453 288.617 141.361 288.617C136.269 288.617 131.555 289.781 127.427 292.109C123.299 294.438 120.051 297.634 117.683 301.699C115.315 305.763 114.121 310.314 114.121 315.394C114.121 320.475 115.336 325.28 117.788 329.365C120.24 333.451 123.592 336.647 127.846 338.933C132.099 341.22 137.003 342.363 142.513 342.363C146.851 342.363 150.79 341.643 154.352 340.204C157.915 338.764 160.953 336.52 163.467 333.493L154.562 324.603C153.032 326.36 151.251 327.693 149.219 328.582C147.186 329.471 144.965 329.895 142.513 329.895C139.789 329.895 137.443 329.323 135.431 328.159C133.44 326.995 131.911 325.322 130.821 323.121C130.486 322.443 130.214 321.724 129.983 320.962L166.38 320.792C166.736 319.522 166.967 318.379 167.071 317.363C167.176 316.347 167.239 315.331 167.239 314.336C167.239 309.319 166.128 304.874 163.886 301C161.644 297.126 158.606 294.078 154.771 291.898ZM129.983 309.743C130.193 309.044 130.423 308.388 130.717 307.774C131.722 305.657 133.168 304.006 135.012 302.799C136.856 301.593 139.035 301 141.55 301C143.855 301 145.824 301.529 147.48 302.588C149.114 303.646 150.371 305.149 151.188 307.075C151.524 307.837 151.775 308.705 151.985 309.616L129.962 309.743H129.983Z" fill="white"/>
<path d="M448.648 301.233C446.406 297.359 443.368 294.311 439.533 292.131C435.698 289.95 431.214 288.85 426.123 288.85C421.031 288.85 416.316 290.014 412.188 292.342C408.102 294.65 404.896 297.804 402.529 301.804C402.382 301.55 402.298 301.254 402.13 301C399.888 297.126 396.85 294.078 393.016 291.898C389.181 289.717 384.697 288.617 379.605 288.617C374.513 288.617 369.799 289.781 365.671 292.109C361.543 294.438 358.295 297.634 355.927 301.699C353.56 305.763 352.365 310.314 352.365 315.394C352.365 320.475 353.581 325.28 356.032 329.365C358.484 333.451 361.836 336.647 366.09 338.933C370.344 341.22 375.247 342.363 380.758 342.363C385.095 342.363 389.034 341.643 392.597 340.204C394.922 339.272 397.73 337.24 399.616 335.631C395.823 330.233 393.979 324.349 393.979 324.349C392.45 326.106 389.474 327.693 387.463 328.582C385.43 329.471 383.209 329.895 380.758 329.895C378.034 329.895 375.687 329.323 373.675 328.159C371.685 326.995 370.155 325.322 369.065 323.121C368.73 322.443 368.458 321.724 368.227 320.962L399.365 320.813C399.909 323.968 400.936 326.91 402.529 329.577C404.98 333.663 408.333 336.859 412.586 339.145C416.84 341.431 421.743 342.574 427.254 342.574C431.591 342.574 435.531 341.855 439.093 340.415C442.655 338.976 445.693 336.732 448.208 333.705L439.302 324.814C437.773 326.571 435.992 327.905 433.959 328.794C431.927 329.683 429.706 330.106 427.254 330.106C424.53 330.106 422.183 329.535 420.172 328.371C418.181 327.206 416.651 325.534 415.562 323.332C415.227 322.655 414.954 321.935 414.724 321.173L451.12 321.004C451.477 319.734 451.707 318.591 451.812 317.575C451.917 316.559 451.98 315.543 451.98 314.548C451.98 309.531 450.869 305.086 448.627 301.212L448.648 301.233ZM368.227 309.743C368.437 309.044 368.667 308.388 368.961 307.774C369.966 305.657 371.412 304.006 373.256 302.799C375.1 301.593 377.279 301 379.794 301C382.099 301 384.068 301.529 385.724 302.588C387.358 303.646 388.615 305.149 389.432 307.075C389.768 307.837 390.019 308.705 390.229 309.616L368.206 309.743H368.227ZM414.745 309.975C414.954 309.277 415.185 308.621 415.478 308.007C416.484 305.89 417.93 304.239 419.774 303.032C421.618 301.826 423.797 301.233 426.311 301.233C428.616 301.233 430.586 301.762 432.241 302.821C433.875 303.879 435.133 305.382 435.95 307.308C436.285 308.07 436.537 308.938 436.746 309.848L414.724 309.975H414.745Z" fill="white"/>
<path d="M296.418 294.078C295.035 292.745 293.463 291.623 291.661 290.734C288.895 289.4 285.815 288.723 282.378 288.723C277.706 288.723 273.536 289.866 269.869 292.152C266.202 294.438 263.311 297.613 261.173 301.678C259.036 305.742 257.988 310.335 257.988 315.479C257.988 320.623 259.057 325.195 261.173 329.196C263.311 333.176 266.223 336.351 269.932 338.722C273.641 341.093 277.79 342.257 282.399 342.257C285.899 342.257 289.021 341.58 291.787 340.246C293.568 339.378 295.097 338.277 296.459 336.986V341.199H312.28V294.015L296.459 289.781V294.078H296.418ZM293.966 324.179C291.912 326.444 289.168 327.566 285.731 327.566C283.573 327.566 281.624 327.058 279.927 326.042C278.209 325.026 276.847 323.587 275.841 321.745C274.835 319.903 274.332 317.829 274.332 315.5C274.332 313.172 274.835 311.097 275.841 309.256C276.847 307.414 278.209 305.996 279.927 304.98C281.645 303.964 283.573 303.435 285.731 303.435C287.889 303.435 289.964 303.943 291.703 304.98C293.442 305.996 294.783 307.414 295.684 309.213C296.585 311.013 297.046 313.087 297.046 315.395C297.046 318.993 296.019 321.914 293.966 324.179Z" fill="white"/>
<path d="M353.202 289.844C351.358 289.104 349.2 288.744 346.77 288.744C341.259 288.744 336.9 290.395 333.715 293.718C333.715 293.718 333.674 293.761 333.674 293.782V289.781L317.539 294.015V341.22H333.674V313.066C333.674 309.742 334.47 307.266 336.02 305.594C337.592 303.942 339.729 303.117 342.453 303.117C343.773 303.117 344.968 303.329 346.015 303.752C347.063 304.175 347.21 304.599 348.53 305.445C350.185 299.857 353.789 294.438 356.555 291.792C355.738 291.114 354.46 290.352 353.181 289.844H353.202Z" fill="white"/>
<rect x="176.39" y="23.8984" width="94.1306" height="241.505" rx="47.0653" transform="rotate(33 176.39 23.8984)" fill="#96E418"/>
<path d="M240.283 121.156C254.44 99.3558 283.589 93.16 305.389 107.317V107.317C327.189 121.474 333.385 150.623 319.227 172.423L275.955 239.057C261.798 260.857 232.649 267.053 210.849 252.896V252.896C189.049 238.739 182.853 209.59 197.01 187.79L240.283 121.156Z" fill="#49E2F7"/>
<rect x="316.428" y="158.481" width="101.371" height="101.371" rx="50.6857" fill="#FC9DED"/>
</svg>
