<svg width="768" height="113" viewBox="0 0 768 113" fill="none" xmlns="http://www.w3.org/2000/svg">
<path d="M307.209 44.4308C303.187 42.2267 298.674 41.1387 293.667 41.1387C288.661 41.1387 283.764 42.2546 279.579 44.4866C276.761 45.9932 274.354 47.974 272.329 50.3734C270.415 47.9182 268.117 45.9095 265.436 44.3471C261.715 42.1988 257.612 41.1387 253.043 41.1387C248.037 41.1387 243.578 42.1988 239.693 44.2634C237.97 45.212 236.411 46.3559 234.988 47.6392V42.5336L213.924 48.1135V110.329H234.988V70.712C234.988 68.48 235.453 66.5829 236.411 64.9926C237.368 63.4024 238.681 62.1748 240.295 61.282C241.937 60.3892 243.797 59.9707 245.903 59.9707C248.913 59.9707 251.429 60.9193 253.481 62.8165C255.533 64.7136 256.545 67.3362 256.545 70.6841V110.301H277.609V70.6841C277.609 68.4521 278.074 66.555 278.977 64.9647C279.88 63.3745 281.193 62.1469 282.862 61.2541C284.558 60.3613 286.391 59.9428 288.415 59.9428C291.342 59.9428 293.804 60.8914 295.856 62.7886C297.908 64.6857 298.92 67.3083 298.92 70.6562V110.273H319.984V68.1453C319.984 62.4817 318.835 57.6272 316.565 53.6376C314.294 49.648 311.148 46.5511 307.127 44.3471L307.209 44.4308Z" fill="#2F2F2F"/>
<path d="M495.283 44.4317C491.262 42.2556 486.748 41.1675 481.742 41.1675C476.735 41.1675 471.839 42.2835 467.653 44.5154C464.835 46.022 462.428 48.0028 460.404 50.4022C458.489 47.947 456.191 45.9383 453.51 44.3759C449.817 42.2277 445.686 41.1675 441.118 41.1675C436.111 41.1675 431.652 42.2277 427.768 44.2922C426.044 45.2408 424.485 46.3847 423.062 47.668V42.5345L401.998 48.1144V110.33H423.062V70.7129C423.062 68.481 423.527 66.5838 424.485 64.9935C425.442 63.4033 426.755 62.1757 428.369 61.2829C430.011 60.3901 431.871 59.9717 433.978 59.9717C436.987 59.9717 439.504 60.9202 441.555 62.8174C443.607 64.7145 444.619 67.3371 444.619 70.685V110.302H465.683V70.685C465.683 68.4531 466.149 66.5559 467.051 64.9656C467.954 63.3754 469.267 62.1478 470.936 61.255C472.632 60.3622 474.465 59.9438 476.489 59.9438C479.416 59.9438 481.878 60.8923 483.93 62.7895C485.982 64.6866 486.994 67.3092 486.994 70.6571V110.274H508.058V68.1462C508.058 62.4826 506.909 57.6281 504.639 53.6385C502.368 49.6489 499.222 46.5521 495.201 44.348L495.283 44.4317Z" fill="#2F2F2F"/>
<path d="M379.43 45.3244C374.423 42.4508 368.569 41 361.922 41C355.274 41 349.119 42.5345 343.73 45.6034C338.34 48.6723 334.1 52.8851 331.009 58.2418C327.918 63.5985 326.358 69.5968 326.358 76.2927C326.358 82.9885 327.945 89.3217 331.146 94.7063C334.346 100.091 338.723 104.304 344.277 107.317C349.83 110.33 356.231 111.836 363.426 111.836C369.089 111.836 374.232 110.888 378.882 108.991C383.533 107.094 387.5 104.136 390.782 100.147L379.156 88.4289C377.159 90.7446 374.834 92.5022 372.18 93.674C369.527 94.8458 366.627 95.4037 363.426 95.4037C359.87 95.4037 356.806 94.6505 354.18 93.116C351.581 91.5815 349.584 89.3775 348.161 86.476C347.724 85.5832 347.368 84.6346 347.067 83.6302L394.585 83.407C395.05 81.7331 395.351 80.2265 395.488 78.8873C395.625 77.5482 395.707 76.209 395.707 74.8977C395.707 68.2856 394.257 62.4267 391.33 57.3211C388.402 52.2155 384.436 48.198 379.43 45.3244ZM347.067 68.8436C347.341 67.9229 347.642 67.058 348.025 66.2489C349.338 63.459 351.225 61.2828 353.633 59.6926C356.04 58.1023 358.885 57.3211 362.168 57.3211C365.177 57.3211 367.748 58.0186 369.91 59.4136C372.043 60.8085 373.685 62.7894 374.752 65.3282C375.189 66.3326 375.518 67.4765 375.791 68.6762L347.04 68.8436H347.067Z" fill="#2F2F2F"/>
<path d="M763.101 57.628C760.174 52.5224 756.207 48.5049 751.201 45.6313C746.195 42.7577 740.341 41.3069 733.693 41.3069C727.045 41.3069 720.89 42.8414 715.501 45.9103C710.167 48.9513 705.981 53.1083 702.89 58.3813C702.698 58.0465 702.589 57.6559 702.37 57.3211C699.443 52.2155 695.476 48.198 690.47 45.3244C685.464 42.4508 679.61 41 672.962 41C666.315 41 660.159 42.5345 654.77 45.6034C649.381 48.6723 645.141 52.8851 642.049 58.2418C638.958 63.5985 637.399 69.5968 637.399 76.2927C637.399 82.9885 638.986 89.3217 642.186 94.7063C645.387 100.091 649.764 104.304 655.317 107.317C660.871 110.33 667.272 111.836 674.467 111.836C680.129 111.836 685.272 110.888 689.923 108.991C692.96 107.763 696.625 105.085 699.087 102.964C694.136 95.8501 691.729 88.0941 691.729 88.0941C689.731 90.4098 685.847 92.5022 683.221 93.674C680.567 94.8458 677.667 95.4037 674.467 95.4037C670.91 95.4037 667.846 94.6505 665.22 93.116C662.621 91.5815 660.624 89.3775 659.202 86.4759C658.764 85.5832 658.409 84.6346 658.108 83.6302L698.759 83.4349C699.47 87.5919 700.811 91.4699 702.89 94.9853C706.091 100.37 710.468 104.583 716.021 107.596C721.574 110.609 727.976 112.115 735.17 112.115C740.833 112.115 745.976 111.167 750.627 109.27C755.277 107.373 759.244 104.415 762.527 100.426L750.9 88.7079C748.903 91.0235 746.578 92.7812 743.924 93.953C741.271 95.1247 738.371 95.6827 735.17 95.6827C731.614 95.6827 728.55 94.9295 725.924 93.395C723.325 91.8605 721.328 89.6565 719.905 86.7549C719.468 85.8622 719.112 84.9136 718.811 83.9092L766.329 83.686C766.794 82.0121 767.095 80.5055 767.232 79.1663C767.369 77.8272 767.451 76.488 767.451 75.1767C767.451 68.5646 766.001 62.7057 763.074 57.6001L763.101 57.628ZM658.108 68.8436C658.381 67.9229 658.682 67.058 659.065 66.2489C660.378 63.459 662.266 61.2828 664.673 59.6926C667.08 58.1023 669.926 57.3211 673.208 57.3211C676.217 57.3211 678.789 58.0186 680.95 59.4136C683.084 60.8085 684.725 62.7894 685.792 65.3282C686.23 66.3326 686.558 67.4765 686.832 68.6762L658.08 68.8436H658.108ZM718.839 69.1504C719.112 68.2298 719.413 67.3649 719.796 66.5558C721.109 63.7659 722.997 61.5897 725.404 59.9995C727.811 58.4092 730.656 57.628 733.939 57.628C736.948 57.628 739.52 58.3255 741.681 59.7205C743.815 61.1154 745.456 63.0963 746.523 65.6351C746.961 66.6395 747.289 67.7834 747.563 68.9831L718.811 69.1504H718.839Z" fill="#2F2F2F"/>
<path d="M564.357 48.1982C562.552 46.4405 560.5 44.9619 558.148 43.7901C554.537 42.0324 550.515 41.1396 546.029 41.1396C539.928 41.1396 534.484 42.6462 529.697 45.6593C524.91 48.6725 521.135 52.8574 518.344 58.2141C515.554 63.5707 514.186 69.6249 514.186 76.4044C514.186 83.184 515.581 89.2103 518.344 94.4832C521.135 99.7283 524.937 103.913 529.779 107.038C534.621 110.163 540.038 111.697 546.056 111.697C550.625 111.697 554.701 110.804 558.312 109.047C560.637 107.903 562.634 106.452 564.412 104.75V110.302H585.066V48.1145L564.412 42.5346V48.1982H564.357ZM561.157 87.8711C558.476 90.8563 554.892 92.335 550.406 92.335C547.588 92.335 545.044 91.6654 542.828 90.3262C540.585 88.9871 538.807 87.0899 537.494 84.6627C536.18 82.2354 535.524 79.5013 535.524 76.4323C535.524 73.3634 536.18 70.6293 537.494 68.202C538.807 65.7748 540.585 63.9055 542.828 62.5664C545.071 61.2272 547.588 60.5297 550.406 60.5297C553.223 60.5297 555.932 61.1993 558.202 62.5664C560.473 63.9055 562.224 65.7748 563.4 68.1462C564.576 70.5177 565.178 73.2518 565.178 76.2928C565.178 81.0357 563.838 84.8858 561.157 87.8711Z" fill="#2F2F2F"/>
<path d="M638.493 42.6182C636.086 41.6418 633.268 41.1675 630.095 41.1675C622.9 41.1675 617.21 43.3436 613.052 47.7238C613.052 47.7238 612.997 47.7796 612.997 47.8075V42.5345L591.933 48.1144V110.33H612.997V73.2238C612.997 68.8436 614.037 65.5794 616.061 63.3754C618.113 61.1992 620.903 60.1111 624.46 60.1111C626.183 60.1111 627.743 60.3901 629.11 60.9481C630.478 61.5061 630.67 62.0641 632.393 63.1801C634.554 55.8146 639.259 48.6724 642.871 45.185C641.804 44.2922 640.135 43.2878 638.466 42.6182H638.493Z" fill="#2F2F2F"/>
<rect x="57.4316" y="-8.11523" width="47.4014" height="121.615" rx="23.7007" transform="rotate(33 57.4316 -8.11523)" fill="#96E418"/>
<path d="M89.6068 40.861C96.7359 29.8832 111.414 26.7631 122.392 33.8922C133.37 41.0213 136.49 55.6998 129.361 66.6776L107.57 100.233C100.441 111.21 85.7624 114.33 74.7846 107.201C63.8068 100.072 60.6868 85.3938 67.8159 74.416L89.6068 40.861Z" fill="#49E2F7"/>
<rect x="127.952" y="59.6562" width="51.0476" height="51.0476" rx="25.5238" fill="#FC9DED"/>
</svg>
