<svg width="424" height="54" viewBox="0 0 424 54" fill="none" xmlns="http://www.w3.org/2000/svg">
<g clip-path="url(#clip0_2930_81804)">
<path d="M71.4524 2.6038C68.3722 0.931516 64.9149 0.105957 61.0803 0.105957C57.2458 0.105957 53.495 0.952684 50.2891 2.64614C48.1309 3.78922 46.2869 5.29216 44.7363 7.11262C43.2696 5.24982 41.5095 3.72571 39.456 2.5403C36.6063 0.910348 33.4632 0.105957 29.9639 0.105957C26.1294 0.105957 22.7139 0.910347 19.7385 2.47679C18.4184 3.19651 17.224 4.06441 16.1344 5.03814V1.16437L0 5.398V52.603H16.1344V22.5442C16.1344 20.8508 16.4906 19.4113 17.224 18.2047C17.9574 16.9982 18.9632 16.0668 20.1995 15.3894C21.4567 14.712 22.8815 14.3945 24.495 14.3945C26.7999 14.3945 28.7277 15.1142 30.2992 16.5536C31.8707 17.9931 32.646 19.9829 32.646 22.523V52.5819H48.7804V22.523C48.7804 20.8296 49.1366 19.3902 49.8281 18.1836C50.5196 16.977 51.5254 16.0456 52.8036 15.3682C54.1027 14.6908 55.5066 14.3733 57.0572 14.3733C59.2992 14.3733 61.1851 15.093 62.7566 16.5325C64.3281 17.9719 65.1034 19.9617 65.1034 22.5019V52.5607H81.2379V20.5967C81.2379 16.2996 80.3578 12.6163 78.6186 9.5893C76.8795 6.56225 74.4698 4.21258 71.3896 2.5403L71.4524 2.6038Z" fill="#1C1B1F"/>
<path d="M215.511 2.60363C212.431 0.952512 208.973 0.126953 205.139 0.126953C201.304 0.126953 197.554 0.97368 194.348 2.66713C192.189 3.81022 190.346 5.31316 188.795 7.13362C187.328 5.27082 185.568 3.74671 183.515 2.56129C180.686 0.931344 177.522 0.126953 174.023 0.126953C170.188 0.126953 166.773 0.931344 163.797 2.49779C162.477 3.21751 161.283 4.0854 160.193 5.05914V1.16419L144.059 5.39783V52.6029H160.193V22.544C160.193 20.8506 160.549 19.4112 161.283 18.2046C162.016 16.998 163.022 16.0666 164.258 15.3892C165.515 14.7118 166.94 14.3943 168.554 14.3943C170.859 14.3943 172.786 15.114 174.358 16.5535C175.929 17.9929 176.705 19.9827 176.705 22.5229V52.5817H192.839V22.5229C192.839 20.8294 193.195 19.39 193.887 18.1834C194.578 16.9768 195.584 16.0454 196.862 15.368C198.161 14.6907 199.565 14.3731 201.116 14.3731C203.358 14.3731 205.244 15.0929 206.815 16.5323C208.387 17.9717 209.162 19.9615 209.162 22.5017V52.5605H225.296V20.5966C225.296 16.2994 224.416 12.6162 222.677 9.58913C220.938 6.56208 218.528 4.21241 215.448 2.54012L215.511 2.60363Z" fill="#1C1B1F"/>
<path d="M126.771 3.28107C122.937 1.10074 118.453 0 113.361 0C108.269 0 103.555 1.16425 99.4268 3.49275C95.2989 5.82125 92.051 9.01764 89.6832 13.0819C87.3155 17.1462 86.1211 21.6974 86.1211 26.7777C86.1211 31.8581 87.3364 36.6633 89.788 40.7487C92.2396 44.8342 95.5922 48.0306 99.8458 50.3167C104.099 52.6029 109.003 53.746 114.513 53.746C118.851 53.746 122.79 53.0263 126.352 51.5868C129.915 50.1474 132.953 47.9036 135.467 44.8765L126.562 35.9859C125.032 37.7428 123.251 39.0764 121.219 39.9655C119.186 40.8546 116.965 41.2779 114.513 41.2779C111.789 41.2779 109.443 40.7064 107.431 39.5421C105.44 38.3779 103.911 36.7056 102.821 34.5041C102.486 33.8267 102.214 33.107 101.983 32.345L138.38 32.1756C138.736 30.9055 138.967 29.7624 139.071 28.7464C139.176 27.7303 139.239 26.7142 139.239 25.7193C139.239 20.7025 138.128 16.2572 135.886 12.3834C133.644 8.5096 130.606 5.46139 126.771 3.28107ZM101.983 21.1258C102.193 20.4273 102.423 19.7711 102.717 19.1572C103.722 17.0404 105.168 15.3893 107.012 14.1827C108.856 12.9761 111.035 12.3834 113.55 12.3834C115.855 12.3834 117.824 12.9126 119.48 13.971C121.114 15.0294 122.371 16.5323 123.188 18.4586C123.524 19.2207 123.775 20.0886 123.985 20.9988L101.962 21.1258H101.983Z" fill="#1C1B1F"/>
<path d="M420.648 12.6162C418.406 8.74245 415.368 5.69424 411.533 3.51392C407.698 1.33359 403.214 0.23285 398.123 0.23285C393.031 0.23285 388.316 1.3971 384.188 3.7256C380.102 6.03293 376.896 9.18698 374.529 13.1878C374.382 12.9338 374.298 12.6374 374.13 12.3834C371.888 8.5096 368.85 5.46139 365.016 3.28107C361.181 1.10074 356.697 0 351.605 0C346.513 0 341.799 1.16425 337.671 3.49275C333.543 5.82125 330.295 9.01764 327.927 13.0819C325.56 17.1462 324.365 21.6974 324.365 26.7777C324.365 31.8581 325.581 36.6633 328.032 40.7487C330.484 44.8342 333.836 48.0306 338.09 50.3167C342.344 52.6029 347.247 53.746 352.758 53.746C357.095 53.746 361.034 53.0263 364.597 51.5868C366.922 50.6554 369.73 48.6233 371.616 47.0145C367.823 41.6166 365.979 35.7319 365.979 35.7319C364.45 37.4888 361.474 39.0764 359.463 39.9655C357.43 40.8546 355.209 41.2779 352.758 41.2779C350.034 41.2779 347.687 40.7064 345.675 39.5421C343.685 38.3779 342.155 36.7056 341.065 34.5041C340.73 33.8267 340.458 33.107 340.227 32.345L371.365 32.1968C371.909 35.3508 372.936 38.2932 374.529 40.9604C376.98 45.0459 380.333 48.2423 384.586 50.5284C388.84 52.8146 393.743 53.9577 399.254 53.9577C403.591 53.9577 407.531 53.2379 411.093 51.7985C414.655 50.3591 417.693 48.1152 420.208 45.0882L411.302 36.1976C409.773 37.9545 407.992 39.2881 405.959 40.1772C403.927 41.0662 401.706 41.4896 399.254 41.4896C396.53 41.4896 394.183 40.9181 392.172 39.7538C390.181 38.5896 388.651 36.9173 387.562 34.7158C387.227 34.0384 386.954 33.3187 386.724 32.5566L423.12 32.3873C423.477 31.1172 423.707 29.9741 423.812 28.9581C423.917 27.942 423.98 26.9259 423.98 25.931C423.98 20.9141 422.869 16.4688 420.627 12.5951L420.648 12.6162ZM340.227 21.1258C340.437 20.4273 340.667 19.7711 340.961 19.1572C341.966 17.0404 343.412 15.3893 345.256 14.1827C347.1 12.9761 349.279 12.3834 351.794 12.3834C354.099 12.3834 356.068 12.9126 357.724 13.971C359.358 15.0294 360.615 16.5323 361.432 18.4586C361.768 19.2207 362.019 20.0886 362.229 20.9988L340.206 21.1258H340.227ZM386.745 21.3587C386.954 20.6601 387.185 20.0039 387.478 19.39C388.484 17.2732 389.93 15.6221 391.774 14.4155C393.618 13.2089 395.797 12.6162 398.311 12.6162C400.616 12.6162 402.586 13.1454 404.241 14.2038C405.875 15.2622 407.133 16.7652 407.95 18.6915C408.285 19.4535 408.537 20.3214 408.746 21.2317L386.724 21.3587H386.745Z" fill="#1C1B1F"/>
<path d="M268.418 5.4615C267.035 4.12791 265.463 3.006 263.661 2.11693C260.895 0.783339 257.815 0.105957 254.378 0.105957C249.706 0.105957 245.536 1.24904 241.869 3.5352C238.202 5.82136 235.311 8.99659 233.173 13.0609C231.036 17.1252 229.988 21.7187 229.988 26.8625C229.988 32.0064 231.057 36.5787 233.173 40.5795C235.311 44.5591 238.223 47.7343 241.932 50.1052C245.641 52.476 249.79 53.6403 254.399 53.6403C257.899 53.6403 261.021 52.9629 263.787 51.6293C265.568 50.7614 267.097 49.6607 268.459 48.3694V52.5819H284.28V5.398L268.459 1.16437V5.4615H268.418ZM265.966 35.5626C263.912 37.8276 261.168 38.9496 257.731 38.9496C255.573 38.9496 253.624 38.4415 251.927 37.4254C250.209 36.4094 248.847 34.9699 247.841 33.1283C246.835 31.2867 246.332 29.2122 246.332 26.8837C246.332 24.5552 246.835 22.4807 247.841 20.6391C248.847 18.7975 250.209 17.3792 251.927 16.3631C253.645 15.347 255.573 14.8178 257.731 14.8178C259.889 14.8178 261.964 15.3259 263.703 16.3631C265.442 17.3792 266.783 18.7975 267.684 20.5967C268.585 22.396 269.046 24.4705 269.046 26.7779C269.046 30.3764 268.019 33.2977 265.966 35.5626Z" fill="#1C1B1F"/>
<path d="M325.202 1.2277C323.358 0.486812 321.2 0.126953 318.77 0.126953C313.259 0.126953 308.9 1.77807 305.715 5.10147C305.715 5.10147 305.674 5.14381 305.674 5.16498V1.16419L289.539 5.39783V52.6029H305.674V24.4492C305.674 21.1258 306.47 18.6491 308.02 16.9768C309.592 15.3257 311.729 14.5001 314.453 14.5001C315.773 14.5001 316.968 14.7118 318.015 15.1352C319.063 15.5586 319.21 15.9819 320.53 16.8286C322.185 11.2402 325.789 5.82119 328.555 3.17517C327.738 2.49779 326.46 1.73573 325.181 1.2277H325.202Z" fill="#1C1B1F"/>
</g>
<defs>
<clipPath id="clip0_2930_81804">
<rect width="424" height="54" fill="white"/>
</clipPath>
</defs>
</svg>
