<svg width="554" height="224" viewBox="0 0 554 224" fill="none" xmlns="http://www.w3.org/2000/svg">
<rect x="245.607" y="-7.87744" width="46.1633" height="118.438" rx="23.0816" transform="rotate(33 245.607 -7.87744)" fill="#96E418"/>
<path d="M276.942 39.8193C283.885 29.1282 298.18 26.0897 308.871 33.0326C319.562 39.9754 322.601 54.2706 315.658 64.9616L294.436 97.6403C287.493 108.331 273.198 111.37 262.507 104.427C251.816 97.4841 248.777 83.189 255.72 72.498L276.942 39.8193Z" fill="#49E2F7"/>
<rect x="314.286" y="58.124" width="49.7143" height="49.7143" rx="24.8571" fill="#FC9DED"/>
<path d="M93.2849 155.431C89.2635 153.227 84.7497 152.139 79.7436 152.139C74.7374 152.139 69.8406 153.255 65.6551 155.487C62.8374 156.993 60.43 158.974 58.4057 161.373C56.4907 158.918 54.1928 156.909 51.5119 155.347C47.7914 153.199 43.688 152.139 39.1195 152.139C34.1133 152.139 29.6542 153.199 25.7696 155.263C24.0462 156.212 22.4869 157.356 21.0643 158.639V153.534L0 159.114V221.329H21.0643V181.712C21.0643 179.48 21.5294 177.583 22.4869 175.993C23.4443 174.402 24.7574 173.175 26.3715 172.282C28.0128 171.389 29.8731 170.971 31.9795 170.971C34.9887 170.971 37.5055 171.919 39.5572 173.816C41.6089 175.714 42.6211 178.336 42.6211 181.684V221.301H63.6854V181.684C63.6854 179.452 64.1505 177.555 65.0532 175.965C65.956 174.374 67.2691 173.147 68.9378 172.254C70.6339 171.361 72.4668 170.943 74.4911 170.943C77.4183 170.943 79.8803 171.891 81.9321 173.789C83.9838 175.686 84.996 178.308 84.996 181.656V221.273H106.06V179.145C106.06 173.482 104.911 168.627 102.641 164.638C100.37 160.648 97.2242 157.551 93.2028 155.347L93.2849 155.431Z" fill="white"/>
<path d="M281.359 155.432C277.338 153.256 272.824 152.167 267.818 152.167C262.812 152.167 257.915 153.283 253.729 155.515C250.912 157.022 248.504 159.003 246.48 161.402C244.565 158.947 242.267 156.938 239.586 155.376C235.893 153.228 231.762 152.167 227.194 152.167C222.188 152.167 217.728 153.228 213.844 155.292C212.12 156.241 210.561 157.385 209.139 158.668V153.535L188.074 159.114V221.33H209.139V181.713C209.139 179.481 209.604 177.584 210.561 175.994C211.519 174.403 212.832 173.176 214.446 172.283C216.087 171.39 217.947 170.972 220.054 170.972C223.063 170.972 225.58 171.92 227.631 173.817C229.683 175.715 230.695 178.337 230.695 181.685V221.302H251.76V181.685C251.76 179.453 252.225 177.556 253.127 175.966C254.03 174.375 255.343 173.148 257.012 172.255C258.708 171.362 260.541 170.944 262.565 170.944C265.493 170.944 267.955 171.892 270.006 173.789C272.058 175.687 273.07 178.309 273.07 181.657V221.274H294.135V179.146C294.135 173.483 292.986 168.628 290.715 164.638C288.444 160.649 285.298 157.552 281.277 155.348L281.359 155.432Z" fill="white"/>
<path d="M165.506 156.324C160.5 153.451 154.645 152 147.998 152C141.35 152 135.195 153.534 129.806 156.603C124.417 159.672 120.176 163.885 117.085 169.242C113.994 174.598 112.435 180.597 112.435 187.293C112.435 193.989 114.021 200.322 117.222 205.706C120.423 211.091 124.8 215.304 130.353 218.317C135.906 221.33 142.308 222.836 149.502 222.836C155.165 222.836 160.308 221.888 164.959 219.991C169.609 218.094 173.576 215.136 176.859 211.147L165.232 199.429C163.235 201.745 160.91 203.502 158.256 204.674C155.603 205.846 152.703 206.404 149.502 206.404C145.946 206.404 142.882 205.65 140.256 204.116C137.657 202.582 135.66 200.377 134.238 197.476C133.8 196.583 133.444 195.635 133.143 194.63L180.661 194.407C181.126 192.733 181.427 191.226 181.564 189.887C181.701 188.548 181.783 187.209 181.783 185.898C181.783 179.286 180.333 173.427 177.406 168.321C174.479 163.216 170.512 159.198 165.506 156.324ZM133.143 179.844C133.417 178.923 133.718 178.058 134.101 177.249C135.414 174.459 137.301 172.283 139.709 170.693C142.116 169.102 144.961 168.321 148.244 168.321C151.253 168.321 153.825 169.019 155.986 170.414C158.12 171.809 159.761 173.789 160.828 176.328C161.266 177.333 161.594 178.476 161.867 179.676L133.116 179.844H133.143Z" fill="white"/>
<path d="M549.177 168.628C546.25 163.522 542.283 159.505 537.277 156.631C532.271 153.758 526.417 152.307 519.769 152.307C513.122 152.307 506.966 153.841 501.577 156.91C496.243 159.951 492.057 164.108 488.966 169.381C488.775 169.047 488.665 168.656 488.446 168.321C485.519 163.216 481.552 159.198 476.546 156.324C471.54 153.451 465.686 152 459.038 152C452.391 152 446.235 153.534 440.846 156.603C435.457 159.672 431.217 163.885 428.126 169.242C425.034 174.598 423.475 180.597 423.475 187.293C423.475 193.989 425.062 200.322 428.262 205.706C431.463 211.091 435.84 215.304 441.393 218.317C446.947 221.33 453.348 222.836 460.543 222.836C466.206 222.836 471.349 221.888 475.999 219.991C479.036 218.763 482.701 216.085 485.164 213.964C480.212 206.85 477.805 199.094 477.805 199.094C475.808 201.41 471.923 203.502 469.297 204.674C466.643 205.846 463.744 206.404 460.543 206.404C456.987 206.404 453.923 205.65 451.296 204.116C448.698 202.582 446.701 200.377 445.278 197.476C444.84 196.583 444.485 195.635 444.184 194.63L484.835 194.435C485.546 198.592 486.887 202.47 488.966 205.985C492.167 211.37 496.544 215.583 502.097 218.596C507.65 221.609 514.052 223.115 521.246 223.115C526.909 223.115 532.052 222.167 536.703 220.27C541.353 218.373 545.32 215.415 548.603 211.426L536.976 199.708C534.979 202.024 532.654 203.781 530 204.953C527.347 206.125 524.447 206.683 521.246 206.683C517.69 206.683 514.626 205.929 512 204.395C509.401 202.861 507.404 200.656 505.982 197.755C505.544 196.862 505.188 195.914 504.887 194.909L552.405 194.686C552.87 193.012 553.171 191.505 553.308 190.166C553.445 188.827 553.527 187.488 553.527 186.177C553.527 179.565 552.077 173.706 549.15 168.6L549.177 168.628ZM444.184 179.844C444.457 178.923 444.758 178.058 445.141 177.249C446.454 174.459 448.342 172.283 450.749 170.693C453.157 169.102 456.002 168.321 459.284 168.321C462.294 168.321 464.865 169.019 467.026 170.414C469.16 171.809 470.801 173.789 471.868 176.328C472.306 177.333 472.634 178.476 472.908 179.676L444.156 179.844H444.184ZM504.915 180.15C505.188 179.23 505.489 178.365 505.872 177.556C507.185 174.766 509.073 172.59 511.48 170.999C513.888 169.409 516.733 168.628 520.015 168.628C523.025 168.628 525.596 169.326 527.757 170.72C529.891 172.115 531.532 174.096 532.599 176.635C533.037 177.64 533.365 178.783 533.639 179.983L504.887 180.15H504.915Z" fill="white"/>
<path d="M350.434 159.198C348.628 157.441 346.576 155.962 344.224 154.79C340.613 153.032 336.591 152.14 332.105 152.14C326.004 152.14 320.561 153.646 315.773 156.659C310.986 159.672 307.211 163.857 304.42 169.214C301.63 174.571 300.262 180.625 300.262 187.404C300.262 194.184 301.657 200.21 304.42 205.483C307.211 210.728 311.013 214.913 315.855 218.038C320.697 221.163 326.114 222.697 332.132 222.697C336.701 222.697 340.777 221.804 344.388 220.047C346.713 218.903 348.71 217.452 350.488 215.75V221.302H371.142V159.114L350.488 153.535V159.198H350.434ZM347.233 198.871C344.552 201.856 340.968 203.335 336.482 203.335C333.664 203.335 331.12 202.665 328.904 201.326C326.661 199.987 324.883 198.09 323.57 195.663C322.257 193.235 321.6 190.501 321.6 187.432C321.6 184.363 322.257 181.629 323.57 179.202C324.883 176.775 326.661 174.906 328.904 173.566C331.147 172.227 333.664 171.53 336.482 171.53C339.3 171.53 342.008 172.199 344.278 173.566C346.549 174.906 348.3 176.775 349.476 179.146C350.652 181.518 351.254 184.252 351.254 187.293C351.254 192.036 349.914 195.886 347.233 198.871Z" fill="white"/>
<path d="M424.57 153.618C422.162 152.642 419.345 152.167 416.171 152.167C408.977 152.167 403.286 154.344 399.128 158.724C399.128 158.724 399.074 158.78 399.074 158.808V153.535L378.009 159.114V221.33H399.074V184.224C399.074 179.844 400.113 176.579 402.138 174.375C404.189 172.199 406.98 171.111 410.536 171.111C412.259 171.111 413.819 171.39 415.186 171.948C416.554 172.506 416.746 173.064 418.469 174.18C420.63 166.815 425.336 159.672 428.947 156.185C427.88 155.292 426.211 154.288 424.542 153.618H424.57Z" fill="white"/>
</svg>
