<svg width="598" height="92" viewBox="0 0 598 92" fill="none" xmlns="http://www.w3.org/2000/svg">
<g clip-path="url(#clip0_2930_81822)">
<path d="M245.449 21.6033C242.368 19.931 238.911 19.1055 235.076 19.1055C231.242 19.1055 227.491 19.9522 224.285 21.6456C222.127 22.7887 220.283 24.2917 218.732 26.1121C217.266 24.2493 215.506 22.7252 213.452 21.5398C210.602 19.9099 207.459 19.1055 203.96 19.1055C200.125 19.1055 196.71 19.9099 193.735 21.4763C192.414 22.196 191.22 23.0639 190.131 24.0377V20.1639L173.996 24.3975V71.6025H190.131V41.5437C190.131 39.8503 190.487 38.4108 191.22 37.2043C191.953 35.9977 192.959 35.0663 194.196 34.3889C195.453 33.7115 196.878 33.394 198.491 33.394C200.796 33.394 202.724 34.1137 204.295 35.5531C205.867 36.9926 206.642 38.9824 206.642 41.5226V71.5814H222.777V41.5226C222.777 39.8291 223.133 38.3897 223.824 37.1831C224.516 35.9765 225.521 35.0451 226.8 34.3677C228.099 33.6903 229.503 33.3728 231.053 33.3728C233.295 33.3728 235.181 34.0925 236.753 35.532C238.324 36.9714 239.1 38.9612 239.1 41.5014V71.5602H255.234V39.5963C255.234 35.2991 254.354 31.6159 252.615 28.5888C250.876 25.5618 248.466 23.2121 245.386 21.5398L245.449 21.6033Z" fill="#181818"/>
<path d="M389.507 21.6031C386.427 19.952 382.97 19.1265 379.135 19.1265C375.3 19.1265 371.55 19.9732 368.344 21.6666C366.186 22.8097 364.342 24.3127 362.791 26.1331C361.324 24.2703 359.564 22.7462 357.511 21.5608C354.682 19.9309 351.518 19.1265 348.019 19.1265C344.184 19.1265 340.769 19.9309 337.793 21.4973C336.473 22.217 335.279 23.0849 334.189 24.0586V20.1637L318.055 24.3973V71.6024H334.189V41.5436C334.189 39.8501 334.545 38.4107 335.279 37.2041C336.012 35.9975 337.018 35.0661 338.254 34.3887C339.511 33.7113 340.936 33.3938 342.55 33.3938C344.855 33.3938 346.782 34.1135 348.354 35.553C349.925 36.9924 350.701 38.9822 350.701 41.5224V71.5812H366.835V41.5224C366.835 39.8289 367.191 38.3895 367.883 37.1829C368.574 35.9763 369.58 35.0449 370.858 34.3675C372.157 33.6902 373.561 33.3726 375.112 33.3726C377.354 33.3726 379.24 34.0924 380.811 35.5318C382.383 36.9712 383.158 38.961 383.158 41.5012V71.56H399.293V39.5961C399.293 35.2989 398.412 31.6157 396.673 28.5886C394.934 25.5616 392.524 23.2119 389.444 21.5396L389.507 21.6031Z" fill="#181818"/>
<path d="M300.768 22.2806C296.933 20.1003 292.449 18.9995 287.357 18.9995C282.265 18.9995 277.551 20.1638 273.423 22.4923C269.295 24.8208 266.047 28.0172 263.679 32.0814C261.312 36.1457 260.117 40.6969 260.117 45.7772C260.117 50.8576 261.333 55.6628 263.784 59.7482C266.236 63.8337 269.588 67.0301 273.842 69.3163C278.096 71.6024 282.999 72.7455 288.51 72.7455C292.847 72.7455 296.786 72.0258 300.348 70.5863C303.911 69.1469 306.949 66.9031 309.463 63.876L300.558 54.9854C299.028 56.7424 297.247 58.076 295.215 58.965C293.182 59.8541 290.961 60.2774 288.51 60.2774C285.786 60.2774 283.439 59.7059 281.427 58.5417C279.437 57.3774 277.907 55.7051 276.817 53.5036C276.482 52.8262 276.21 52.1065 275.979 51.3445L312.376 51.1751C312.732 49.905 312.963 48.762 313.067 47.7459C313.172 46.7298 313.235 45.7137 313.235 44.7188C313.235 39.702 312.125 35.2567 309.882 31.3829C307.64 27.5091 304.602 24.4609 300.768 22.2806ZM275.979 40.1253C276.189 39.4268 276.419 38.7706 276.713 38.1567C277.718 36.0399 279.164 34.3888 281.008 33.1822C282.852 31.9756 285.031 31.3829 287.546 31.3829C289.851 31.3829 291.82 31.9121 293.476 32.9705C295.11 34.0289 296.367 35.5319 297.184 37.4582C297.52 38.2202 297.771 39.0881 297.981 39.9983L275.958 40.1253H275.979Z" fill="#181818"/>
<path d="M594.644 31.6157C592.402 27.742 589.364 24.6937 585.529 22.5134C581.695 20.3331 577.21 19.2324 572.119 19.2324C567.027 19.2324 562.312 20.3966 558.184 22.7251C554.098 25.0324 550.892 28.1865 548.525 32.1873C548.378 31.9333 548.294 31.6369 548.127 31.3829C545.885 27.5091 542.846 24.4609 539.012 22.2806C535.177 20.1003 530.693 18.9995 525.601 18.9995C520.509 18.9995 515.795 20.1638 511.667 22.4923C507.539 24.8208 504.291 28.0172 501.923 32.0814C499.556 36.1457 498.361 40.6969 498.361 45.7772C498.361 50.8576 499.577 55.6628 502.028 59.7482C504.48 63.8337 507.832 67.0301 512.086 69.3162C516.34 71.6024 521.243 72.7455 526.754 72.7455C531.091 72.7455 535.03 72.0258 538.593 70.5863C540.918 69.6549 543.726 67.6228 545.612 66.014C541.819 60.6161 539.976 54.7314 539.976 54.7314C538.446 56.4883 535.47 58.0759 533.459 58.965C531.426 59.8541 529.205 60.2774 526.754 60.2774C524.03 60.2774 521.683 59.7059 519.671 58.5416C517.681 57.3774 516.151 55.7051 515.062 53.5036C514.726 52.8262 514.454 52.1065 514.223 51.3445L545.361 51.1963C545.905 54.3504 546.932 57.2927 548.525 59.9599C550.976 64.0454 554.329 67.2418 558.583 69.5279C562.836 71.8141 567.739 72.9572 573.25 72.9572C577.588 72.9572 581.527 72.2375 585.089 70.798C588.651 69.3586 591.689 67.1148 594.204 64.0877L585.299 55.1971C583.769 56.954 581.988 58.2876 579.955 59.1767C577.923 60.0658 575.702 60.4891 573.25 60.4891C570.526 60.4891 568.179 59.9176 566.168 58.7533C564.177 57.5891 562.648 55.9168 561.558 53.7153C561.223 53.0379 560.95 52.3182 560.72 51.5562L597.117 51.3868C597.473 50.1167 597.703 48.9736 597.808 47.9576C597.913 46.9415 597.976 45.9254 597.976 44.9305C597.976 39.9137 596.865 35.4683 594.623 31.5946L594.644 31.6157ZM514.223 40.1253C514.433 39.4268 514.663 38.7706 514.957 38.1567C515.963 36.0399 517.408 34.3888 519.252 33.1822C521.096 31.9756 523.275 31.3829 525.79 31.3829C528.095 31.3829 530.064 31.9121 531.72 32.9705C533.354 34.0289 534.611 35.5319 535.429 37.4582C535.764 38.2202 536.015 39.0881 536.225 39.9983L514.202 40.1253H514.223ZM560.741 40.3582C560.95 39.6596 561.181 39.0034 561.474 38.3896C562.48 36.2727 563.926 34.6216 565.77 33.415C567.614 32.2084 569.793 31.6157 572.307 31.6157C574.612 31.6157 576.582 32.1449 578.237 33.2034C579.872 34.2618 581.129 35.7647 581.946 37.691C582.281 38.4531 582.533 39.321 582.742 40.2312L560.72 40.3582H560.741Z" fill="#181818"/>
<path d="M442.414 24.461C441.031 23.1274 439.459 22.0055 437.657 21.1164C434.891 19.7829 431.811 19.1055 428.375 19.1055C423.702 19.1055 419.532 20.2485 415.865 22.5347C412.198 24.8209 409.307 27.9961 407.169 32.0604C405.032 36.1247 403.984 40.7182 403.984 45.862C403.984 51.0059 405.053 55.5782 407.169 59.579C409.307 63.5586 412.219 66.7339 415.928 69.1047C419.637 71.4755 423.786 72.6398 428.396 72.6398C431.895 72.6398 435.017 71.9624 437.783 70.6288C439.564 69.7609 441.094 68.6602 442.456 67.3689V71.5814H458.276V24.3975L442.456 20.1639V24.461H442.414ZM439.962 54.5622C437.909 56.8272 435.164 57.9491 431.727 57.9491C429.569 57.9491 427.62 57.441 425.923 56.425C424.205 55.4089 422.843 53.9694 421.837 52.1278C420.831 50.2862 420.328 48.2117 420.328 45.8832C420.328 43.5547 420.831 41.4802 421.837 39.6386C422.843 37.797 424.205 36.3787 425.923 35.3626C427.641 34.3466 429.569 33.8173 431.727 33.8173C433.885 33.8173 435.96 34.3254 437.699 35.3626C439.438 36.3787 440.779 37.797 441.68 39.5963C442.581 41.3956 443.042 43.47 443.042 45.7774C443.042 49.376 442.016 52.2972 439.962 54.5622Z" fill="#181818"/>
<path d="M499.199 20.2272C497.355 19.4863 495.196 19.1265 492.766 19.1265C487.255 19.1265 482.896 20.7776 479.711 24.101C479.711 24.101 479.67 24.1433 479.67 24.1645V20.1637L463.535 24.3973V71.6024H479.67V43.4487C479.67 40.1253 480.466 37.6486 482.016 35.9763C483.588 34.3252 485.725 33.4997 488.449 33.4997C489.769 33.4997 490.964 33.7113 492.011 34.1347C493.059 34.5581 493.206 34.9814 494.526 35.8282C496.181 30.2398 499.785 24.8207 502.551 22.1747C501.734 21.4973 500.456 20.7352 499.178 20.2272H499.199Z" fill="#181818"/>
<rect x="43.9966" y="-3.02362" width="36.5238" height="93.707" rx="18.2619" transform="rotate(33 43.9966 -3.02362)" fill="#96E418"/>
<path d="M68.788 34.7134C74.2811 26.2547 85.5912 23.8507 94.0499 29.3438V29.3438C102.509 34.8369 104.913 46.147 99.4194 54.6057L82.629 80.4606C77.1359 88.9193 65.8258 91.3233 57.3672 85.8302V85.8302C48.9085 80.3371 46.5045 69.027 51.9976 60.5683L68.788 34.7134Z" fill="#49E2F7"/>
<rect x="98.333" y="49.1959" width="39.3334" height="39.3334" rx="19.6667" fill="#FC9DED"/>
</g>
<defs>
<clipPath id="clip0_2930_81822">
<rect width="598" height="92" fill="white"/>
</clipPath>
</defs>
</svg>
